<?xml version="1.0" encoding="UTF-8" standalone="no"?>
<svg
   version="1.0"
   width="640.000000pt"
   height="640.000000pt"
   viewBox="0 0 640.000000 640.000000"
   preserveAspectRatio="xMidYMid meet"
   id="svg28"
   sodipodi:docname="room.svg"
   inkscape:version="1.2.1 (9c6d41e410, 2022-07-14, custom)"
   xmlns:inkscape="http://www.inkscape.org/namespaces/inkscape"
   xmlns:sodipodi="http://sodipodi.sourceforge.net/DTD/sodipodi-0.dtd"
   xmlns="http://www.w3.org/2000/svg"
   xmlns:svg="http://www.w3.org/2000/svg">
  <defs
     id="defs32" />
  <sodipodi:namedview
     id="namedview30"
     pagecolor="#ffffff"
     bordercolor="#000000"
     borderopacity="0.25"
     inkscape:showpageshadow="2"
     inkscape:pageopacity="0.0"
     inkscape:pagecheckerboard="0"
     inkscape:deskcolor="#d1d1d1"
     inkscape:document-units="pt"
     showgrid="false"
     inkscape:zoom="0.88638134"
     inkscape:cx="374.55662"
     inkscape:cy="456.91395"
     inkscape:window-width="1920"
     inkscape:window-height="1052"
     inkscape:window-x="1920"
     inkscape:window-y="0"
     inkscape:window-maximized="1"
     inkscape:current-layer="svg28" />
  <rect
     style="opacity:1;fill:#fec22c;stroke-width:0.297408;fill-opacity:1"
     id="rect401"
     width="639.46527"
     height="639.46527"
     x="0.91463852"
     y="0.22122526" />
  <g
     transform="translate(0.000000,640.000000) scale(0.100000,-0.100000)"
     fill="#000000"
     stroke="none"
     id="g26">
    <path
       d="M2770 4943 c-149 -15 -425 -56 -490 -73 -32 -9 -112 -85 -215 -208 l-26 -31 1 -692 c0 -381 1 -693 2 -694 2 -2 48 -31 103 -66 l100 -62 95 17 c124 22 355 53 450 61 l75 6 107 92 107 92 0 700 0 700 -106 83 c-111 86 -108 85 -203 75z m-30 -880 l0 -548 -163 -23 c-89 -12 -172 -25 -184 -28 l-23 -6 0 550 0 551 38 7 c73 14 268 42 300 43 l32 1 0 -547z"
       id="path2"
       style="fill:#042243;fill-opacity:1" />
    <path
       d="M3263 4868 l-102 -83 0 -697 -1 -696 110 -96 c108 -94 112 -96 161 -96 73 0 322 -28 451 -50 l112 -19 105 68 106 68 3 685 2 685 -27 35 c-16 19 -64 73 -108 120 -77 83 -82 87 -140 97 -137 26 -338 51 -450 56 l-120 6 -102 -83z m488 -277 l114 -16 3 -547 c2 -517 1 -548 -15 -548 -10 0 -67 6 -128 15 -60 8 -136 17 -167 20 l-58 6 0 550 0 549 68 -6 c38 -4 120 -14 183 -23z"
       id="path4"
       style="fill:#042243;fill-opacity:1" />
    <path
       d="M4280 3937 l0 -872 68 -19 c37 -11 107 -32 155 -48 49 -16 91 -27 94 -25 2 3 4 219 4 481 -1 262 1 476 4 476 3 0 10 -10 14 -22 5 -13 64 -165 131 -338 67 -173 124 -319 127 -323 3 -5 24 26 48 70 23 43 57 105 76 138 19 34 59 105 89 159 l55 99 3 -497 c1 -335 6 -496 13 -496 5 0 73 -36 149 -79 l140 -79 0 873 0 873 -27 18 c-43 28 -275 155 -277 152 -2 -2 -61 -105 -132 -230 -71 -126 -132 -228 -135 -228 -4 0 -16 28 -29 63 -21 58 -86 226 -198 511 l-47 119 -55 19 c-61 21 -254 78 -264 78 -3 0 -6 -393 -6 -873z"
       id="path6"
       style="fill:#042243;fill-opacity:1" />
    <path
       d="M1545 4649 c-154 -62 -393 -176 -522 -249 l-73 -41 0 -869 c0 -583 3 -870 10 -870 6 0 50 22 98 49 48 27 113 62 145 77 l57 28 0 357 0 356 47 21 47 20 59 -132 c32 -72 74 -165 92 -206 18 -41 44 -100 58 -130 14 -30 32 -72 40 -92 l15 -37 89 31 c48 17 127 43 174 57 l86 26 -138 310 c-76 171 -138 313 -139 316 0 3 50 67 110 143 l110 137 -2 322 -3 321 -100 58 c-55 32 -102 58 -105 57 -3 0 -72 -27 -155 -60z m45 -489 c-1 -93 -4 -178 -7 -189 -3 -11 -23 -27 -46 -36 -23 -9 -92 -39 -153 -66 -62 -27 -115 -49 -118 -49 -3 0 -6 85 -6 188 l0 189 28 13 c127 60 270 119 290 120 10 0 13 -37 12 -170z"
       id="path8"
       style="fill:#042243;fill-opacity:1" />
    <path
       d="M3045 2929 c-82 -4 -176 -7 -207 -8 l-58 -1 0 -207 c0 -115 3 -387 7 -605 l6 -398 89 0 88 0 0 244 c0 230 1 244 19 249 10 2 23 2 28 -2 5 -3 43 -114 84 -246 l75 -240 97 -3 c53 -1 97 0 97 3 0 3 -32 108 -71 233 -39 125 -73 236 -76 247 -2 14 15 42 57 89 l60 70 0 227 0 227 -52 59 c-29 32 -53 59 -54 61 -3 7 -49 7 -189 1z m115 -359 l0 -130 -49 0 c-26 0 -69 -3 -95 -6 l-46 -7 0 137 0 136 95 0 95 0 0 -130z"
       id="path10"
       style="fill:#042243;fill-opacity:1" />
    <path
       d="M3504 2921 c-2 -2 -4 -275 -4 -607 l0 -604 88 0 89 0 6 368 c4 202 7 472 7 599 l0 233 -22 5 c-30 6 -159 11 -164 6z"
       id="path12"
       style="fill:#042243;fill-opacity:1" />
    <path
       d="M2545 2887 c-38 -5 -71 -11 -73 -12 -2 -2 -3 -109 -2 -238 l1 -234 -96 -13 c-53 -7 -98 -11 -100 -8 -3 2 -8 104 -12 226 -3 122 -9 222 -12 222 -3 0 -44 -8 -90 -17 l-84 -18 7 -465 c4 -256 9 -500 13 -542 l6 -78 90 0 90 0 -4 228 -4 227 93 9 c51 4 96 5 100 2 3 -4 8 -110 10 -237 l4 -229 91 0 90 0 -6 377 c-4 207 -7 475 -7 595 0 201 -1 218 -17 217 -10 -1 -49 -6 -88 -12z"
       id="path14"
       style="fill:#042243;fill-opacity:1" />
    <path
       d="M3847 2553 c-4 -186 -8 -450 -9 -588 l-1 -250 91 -3 91 -3 3 230 c2 126 5 232 8 235 3 2 56 0 118 -6 62 -6 114 -9 116 -7 2 2 6 49 8 104 l3 100 -120 15 -120 15 -3 119 c-1 66 1 122 5 126 4 4 69 -3 143 -16 74 -13 136 -23 138 -24 1 0 2 47 2 104 l0 103 -102 22 c-130 26 -326 61 -348 61 -15 0 -18 -31 -23 -337z"
       id="path16"
       style="fill:#042243;fill-opacity:1" />
    <path
       d="M4456 2739 c-3 -17 -6 -62 -6 -99 l0 -68 53 -12 c28 -7 69 -17 91 -23 l39 -11 -7 -145 c-3 -81 -7 -265 -8 -411 l-1 -265 91 -3 92 -3 0 239 c0 131 3 306 7 389 l6 151 76 -24 c42 -13 79 -24 84 -24 4 0 7 38 7 84 0 71 -3 84 -17 89 -10 3 -63 22 -118 42 -75 28 -371 125 -381 125 -1 0 -4 -14 -8 -31z"
       id="path18"
       style="fill:#042243;fill-opacity:1" />
    <path
       d="M1935 2755 c-5 -2 -68 -22 -140 -45 -71 -22 -183 -62 -247 -87 l-118 -46 0 -82 0 -83 75 24 c42 13 80 24 85 24 6 0 10 -89 10 -228 0 -126 3 -297 7 -380 l6 -152 90 0 89 0 -7 408 -8 409 44 11 c24 6 63 16 87 22 l42 11 0 99 c0 55 -1 100 -2 99 -2 0 -7 -2 -13 -4z"
       id="path20"
       style="fill:#042243;fill-opacity:1" />
    <path
       d="M5120 2475 l0 -85 160 -80 c88 -44 165 -80 170 -80 11 0 13 116 3 153 -4 16 -86 60 -286 154 l-47 23 0 -85z"
       id="path22"
       style="fill:#042243;fill-opacity:1" />
    <path
       d="M1120 2436 l-165 -81 -3 -87 -3 -88 163 80 c89 44 166 84 170 88 5 5 8 45 6 89 l-3 80 -165 -81z"
       id="path24"
       style="fill:#042243;fill-opacity:1" />
  </g>
</svg>
